<svg width="48" height="48" viewBox="0 0 48 48" fill="none" xmlns="http://www.w3.org/2000/svg">
<path d="M3.15362 10.3205C2.95762 10.8693 3.23202 11.4573 3.72202 11.7709L23.8512 25.1969C24.0133 25.3065 24.2044 25.365 24.4 25.365C24.5956 25.365 24.7868 25.3065 24.9488 25.1969L45.078 11.7709C45.568 11.4573 45.8228 10.8693 45.6464 10.3205C45.2464 9.16314 44.495 8.15952 43.4971 7.44974C42.4992 6.73997 41.3046 6.35947 40.08 6.36133H8.72002C7.49545 6.35947 6.30084 6.73997 5.30294 7.44974C4.30504 8.15952 3.55364 9.16314 3.15362 10.3205Z" fill="white"/>
<path d="M45.9598 17.7295C45.9583 17.5523 45.9088 17.3788 45.8166 17.2275C45.7243 17.0762 45.5927 16.9528 45.4359 16.8704C45.279 16.7879 45.1027 16.7495 44.9258 16.7593C44.7488 16.7691 44.5779 16.8267 44.431 16.9259L25.7522 29.3719C24.929 29.9207 23.8706 29.9207 23.0474 29.3719L4.36864 16.9259C4.22183 16.8267 4.05086 16.7691 3.87392 16.7593C3.69698 16.7495 3.5207 16.7879 3.36384 16.8704C3.20698 16.9528 3.07541 17.0762 2.98314 17.2275C2.89087 17.3788 2.84134 17.5523 2.83984 17.7295V35.7615C2.83984 37.321 3.45934 38.8166 4.56206 39.9193C5.66477 41.022 7.16037 41.6415 8.71984 41.6415H40.0798C41.6393 41.6415 43.1349 41.022 44.2376 39.9193C45.3403 38.8166 45.9598 37.321 45.9598 35.7615V17.7295Z" fill="white"/>
</svg>
