<svg width="60" height="46" viewBox="0 0 60 46" fill="none" xmlns="http://www.w3.org/2000/svg">
<path d="M50.4093 4.35154C46.5461 2.57352 42.4677 1.31214 38.2784 0.599609C37.7051 1.62982 37.1864 2.68978 36.7245 3.77503C32.2621 3.09905 27.7241 3.09905 23.2616 3.77503C22.7994 2.68989 22.2807 1.62995 21.7077 0.599609C17.5157 1.31816 13.4347 2.58254 9.56757 4.36084C1.89038 15.7794 -0.19079 26.9143 0.849793 37.8911C5.34575 41.2304 10.378 43.7701 15.7278 45.3996C16.9324 43.7709 17.9984 42.043 18.9143 40.2343C17.1746 39.5811 15.4955 38.7752 13.8964 37.826C14.3173 37.5192 14.7289 37.203 15.1266 36.8962C19.7796 39.0959 24.8581 40.2365 30 40.2365C35.1419 40.2365 40.2204 39.0959 44.8734 36.8962C45.2758 37.2263 45.6874 37.5424 46.1036 37.826C44.5014 38.7768 42.8192 39.5842 41.0764 40.239C41.9912 42.0468 43.0572 43.7732 44.2629 45.3996C49.6173 43.7766 54.6534 41.2382 59.1502 37.8957C60.3711 25.1662 57.0644 14.1335 50.4093 4.35154ZM20.2324 31.1404C17.3326 31.1404 14.937 28.495 14.937 25.2405C14.937 21.9861 17.2494 19.3174 20.2231 19.3174C23.1969 19.3174 25.574 21.9861 25.5232 25.2405C25.4723 28.495 23.1876 31.1404 20.2324 31.1404ZM39.7676 31.1404C36.8632 31.1404 34.4768 28.495 34.4768 25.2405C34.4768 21.9861 36.7892 19.3174 39.7676 19.3174C42.746 19.3174 45.1046 21.9861 45.0538 25.2405C45.0029 28.495 42.7229 31.1404 39.7676 31.1404Z" fill="white"/>
</svg>
