<svg width="47" height="48" viewBox="0 0 47 48" fill="none" xmlns="http://www.w3.org/2000/svg">
<path d="M0.166992 7.66602C0.166992 5.8095 0.90449 4.02902 2.21724 2.71627C3.53 1.40351 5.31048 0.666016 7.16699 0.666016H16.337C17.1056 0.669992 17.8614 0.863766 18.5371 1.23012C19.2128 1.59647 19.7876 2.12407 20.2103 2.76602L23.5003 7.66602H39.8337C41.6902 7.66602 43.4707 8.40351 44.7834 9.71627C46.0962 11.029 46.8337 12.8095 46.8337 14.666V40.3327C46.8337 42.1892 46.0962 43.9697 44.7834 45.2824C43.4707 46.5952 41.6902 47.3327 39.8337 47.3327H7.16699C5.31048 47.3327 3.53 46.5952 2.21724 45.2824C0.90449 43.9697 0.166992 42.1892 0.166992 40.3327V7.66602Z" fill="white"/>
</svg>
