<svg width="50" height="50" viewBox="0 0 50 50" fill="none" xmlns="http://www.w3.org/2000/svg">
<path fill-rule="evenodd" clip-rule="evenodd" d="M34.4466 37.7368C30.2538 41.0887 24.9367 42.7076 19.5874 42.2613C14.2381 41.8149 9.26285 39.337 5.6836 35.3366C2.10436 31.3362 0.192885 26.1171 0.341835 20.7513C0.490785 15.3855 2.68885 10.2804 6.48451 6.48475C10.2802 2.68909 15.3852 0.491029 20.751 0.342079C26.1168 0.193129 31.336 2.1046 35.3364 5.68385C39.3367 9.2631 41.8146 14.2384 42.261 19.5876C42.7074 24.9369 41.0884 30.2541 37.7366 34.4468L48.6566 45.3435C48.8741 45.5611 49.0467 45.8193 49.1645 46.1036C49.2822 46.3878 49.3428 46.6925 49.3428 47.0002C49.3428 47.3078 49.2822 47.6125 49.1645 47.8968C49.0467 48.181 48.8741 48.4393 48.6566 48.6568C48.439 48.8744 48.1808 49.047 47.8965 49.1647C47.6123 49.2825 47.3076 49.3431 46.9999 49.3431C46.6923 49.3431 46.3876 49.2825 46.1033 49.1647C45.8191 49.047 45.5608 48.8744 45.3433 48.6568L34.4466 37.7368ZM37.6666 21.3335C37.6666 23.4784 37.2441 25.6024 36.4233 27.584C35.6025 29.5657 34.3994 31.3662 32.8827 32.8829C31.366 34.3996 29.5654 35.6027 27.5838 36.4235C25.6021 37.2444 23.4782 37.6668 21.3333 37.6668C19.1883 37.6668 17.0644 37.2444 15.0828 36.4235C13.1011 35.6027 11.3005 34.3996 9.78385 32.8829C8.26716 31.3662 7.06405 29.5657 6.24323 27.584C5.4224 25.6024 4.99993 23.4784 4.99993 21.3335C4.99993 17.0016 6.72076 12.8472 9.78385 9.78409C12.8469 6.721 17.0014 5.00017 21.3333 5.00017C25.6651 5.00017 29.8196 6.721 32.8827 9.78409C35.9458 12.8472 37.6666 17.0016 37.6666 21.3335Z" fill="white"/>
</svg>
