<svg width="70" height="70" viewBox="0 0 70 70" fill="none" xmlns="http://www.w3.org/2000/svg">
<path fill-rule="evenodd" clip-rule="evenodd" d="M18.6665 11.6665C16.81 11.6665 15.0295 12.404 13.7168 13.7168C12.404 15.0295 11.6665 16.81 11.6665 18.6665V51.3332C11.6665 53.1897 12.404 54.9702 13.7168 56.2829C15.0295 57.5957 16.81 58.3332 18.6665 58.3332H51.3332C53.1897 58.3332 54.9702 57.5957 56.2829 56.2829C57.5957 54.9702 58.3332 53.1897 58.3332 51.3332V18.6665C58.3332 16.81 57.5957 15.0295 56.2829 13.7168C54.9702 12.404 53.1897 11.6665 51.3332 11.6665H18.6665ZM16.3332 19.8332C16.3332 17.8965 17.8965 16.3332 19.8332 16.3332H50.1665C52.1032 16.3332 53.6665 17.8965 53.6665 19.8332V33.8332C53.6665 35.7698 52.1032 37.3332 50.1665 37.3332H43.9832C42.8165 37.3332 41.9998 38.4998 41.9998 39.6665C41.9998 41.523 41.2623 43.3035 39.9496 44.6163C38.6368 45.929 36.8564 46.6665 34.9998 46.6665C33.1433 46.6665 31.3628 45.929 30.0501 44.6163C28.7373 43.3035 27.9998 41.523 27.9998 39.6665C27.9998 38.4998 27.1832 37.3332 26.0165 37.3332H19.8332C18.9049 37.3332 18.0147 36.9644 17.3583 36.308C16.7019 35.6517 16.3332 34.7614 16.3332 33.8332V19.8332Z" fill="#B5BFE7"/>
</svg>
