<svg width="52" height="48" viewBox="0 0 52 48" fill="none" xmlns="http://www.w3.org/2000/svg">
<path d="M14.1527 5.01592C10.0009 7.76881 6.86045 11.801 5.20803 16.5005C3.55562 21.2001 3.48142 26.3104 4.99671 31.0559C5.41671 32.4419 5.37471 33.9119 4.57671 35.0879L1.09071 40.6319C0.683899 41.266 0.455128 41.9978 0.428352 42.7507C0.401581 43.5035 0.577801 44.2497 0.938541 44.9111C1.29928 45.5725 1.83126 46.1246 2.47874 46.5097C3.12622 46.8948 3.86536 47.0987 4.61871 47.0999H27.7187C33.9425 47.1898 39.9481 44.809 44.4197 40.4791C48.8913 36.1492 51.4642 30.2233 51.5747 23.9999C51.4642 17.7765 48.8913 11.8506 44.4197 7.52074C39.9481 3.19084 33.9425 0.810016 27.7187 0.899917C22.6787 0.899917 17.9747 2.41192 14.1527 5.01592Z" fill="#B5BFE7"/>
</svg>
