<svg width="34" height="34" viewBox="0 0 34 34" fill="none" xmlns="http://www.w3.org/2000/svg">
<path d="M19.133 2.99935C19.133 2.38051 18.8871 1.78702 18.4496 1.34943C18.012 0.911849 17.4185 0.666016 16.7996 0.666016C16.1808 0.666016 15.5873 0.911849 15.1497 1.34943C14.7121 1.78702 14.4663 2.38051 14.4663 2.99935V14.666H2.79964C2.1808 14.666 1.58731 14.9118 1.14973 15.3494C0.712142 15.787 0.466309 16.3805 0.466309 16.9994C0.466309 17.6182 0.712142 18.2117 1.14973 18.6493C1.58731 19.0869 2.1808 19.3327 2.79964 19.3327H14.4663V30.9994C14.4663 31.6182 14.7121 32.2117 15.1497 32.6493C15.5873 33.0869 16.1808 33.3327 16.7996 33.3327C17.4185 33.3327 18.012 33.0869 18.4496 32.6493C18.8871 32.2117 19.133 31.6182 19.133 30.9994V19.3327H30.7996C31.4185 19.3327 32.012 19.0869 32.4496 18.6493C32.8871 18.2117 33.133 17.6182 33.133 16.9994C33.133 16.3805 32.8871 15.787 32.4496 15.3494C32.012 14.9118 31.4185 14.666 30.7996 14.666H19.133V2.99935Z" fill="white"/>
</svg>
