<svg width="50" height="50" viewBox="0 0 50 50" fill="none" xmlns="http://www.w3.org/2000/svg">
<path fill-rule="evenodd" clip-rule="evenodd" d="M34.4468 37.7368C30.2541 41.0887 24.9369 42.7076 19.5876 42.2613C14.2384 41.8149 9.2631 39.337 5.68385 35.3366C2.1046 31.3362 0.193129 26.1171 0.342079 20.7513C0.491029 15.3855 2.68909 10.2804 6.48475 6.48475C10.2804 2.68909 15.3855 0.491029 20.7513 0.342079C26.1171 0.193129 31.3362 2.1046 35.3366 5.68385C39.337 9.2631 41.8149 14.2384 42.2613 19.5876C42.7076 24.9369 41.0887 30.2541 37.7368 34.4468L48.6568 45.3435C48.8744 45.5611 49.047 45.8193 49.1647 46.1036C49.2825 46.3878 49.3431 46.6925 49.3431 47.0002C49.3431 47.3078 49.2825 47.6125 49.1647 47.8968C49.047 48.181 48.8744 48.4393 48.6568 48.6568C48.4393 48.8744 48.181 49.047 47.8968 49.1647C47.6125 49.2825 47.3078 49.3431 47.0002 49.3431C46.6925 49.3431 46.3878 49.2825 46.1036 49.1647C45.8193 49.047 45.5611 48.8744 45.3435 48.6568L34.4468 37.7368ZM37.6668 21.3335C37.6668 23.4784 37.2444 25.6024 36.4235 27.584C35.6027 29.5657 34.3996 31.3662 32.8829 32.8829C31.3662 34.3996 29.5657 35.6027 27.584 36.4235C25.6024 37.2444 23.4784 37.6668 21.3335 37.6668C19.1886 37.6668 17.0647 37.2444 15.083 36.4235C13.1014 35.6027 11.3008 34.3996 9.78409 32.8829C8.2674 31.3662 7.0643 29.5657 6.24347 27.584C5.42265 25.6024 5.00017 23.4784 5.00017 21.3335C5.00017 17.0016 6.721 12.8472 9.78409 9.78409C12.8472 6.721 17.0016 5.00017 21.3335 5.00017C25.6654 5.00017 29.8198 6.721 32.8829 9.78409C35.946 12.8472 37.6668 17.0016 37.6668 21.3335Z" fill="#fff"/>
</svg>
