<svg width="52" height="52" viewBox="0 0 52 52" fill="none" xmlns="http://www.w3.org/2000/svg">
<path fill-rule="evenodd" clip-rule="evenodd" d="M22.34 0.466813C21.2666 0.58348 20.7066 1.70348 20.8466 2.75348C21.2666 5.46015 20.4033 7.88681 18.56 8.65681C16.6933 9.42681 14.3833 8.30681 12.75 6.09015C12.12 5.25015 10.93 4.87681 10.09 5.53015C8.29328 6.90681 6.70662 8.49348 5.32995 10.2901C4.67662 11.1301 5.04995 12.3201 5.88995 12.9501C8.12995 14.5835 9.22662 16.9168 8.45662 18.7601C7.68662 20.6268 5.25995 21.4668 2.55328 21.0468C1.50328 20.8835 0.383285 21.4668 0.243285 22.5401C-0.0485428 24.7706 -0.0485428 27.0296 0.243285 29.2601C0.383285 30.3335 1.50328 30.8935 2.55328 30.7535C5.25995 30.3335 7.68662 31.1968 8.45662 33.0401C9.22662 34.9068 8.12995 37.2168 5.88995 38.8501C5.04995 39.4801 4.67662 40.6701 5.32995 41.5101C6.70662 43.3068 8.29328 44.8935 10.09 46.2701C10.93 46.9235 12.12 46.5501 12.75 45.7101C14.3833 43.4935 16.7166 42.3735 18.56 43.1435C20.4266 43.9135 21.2666 46.3401 20.8466 49.0468C20.6833 50.0968 21.2666 51.2168 22.34 51.3568C24.5704 51.6486 26.8295 51.6486 29.0599 51.3568C30.1333 51.2168 30.6933 50.0968 30.5533 49.0468C30.1333 46.3401 30.9966 43.9135 32.84 43.1435C34.7066 42.3735 37.0166 43.4701 38.6499 45.7101C39.2799 46.5501 40.47 46.9235 41.31 46.2701C43.1066 44.8935 44.6933 43.3068 46.0699 41.5101C46.7233 40.6701 46.3499 39.4801 45.5099 38.8501C43.2699 37.2168 42.1733 34.8835 42.9433 33.0401C43.7133 31.1735 46.1399 30.3335 48.8466 30.7535C49.8966 30.9168 51.0166 30.3335 51.1566 29.2601C51.4484 27.0296 51.4484 24.7706 51.1566 22.5401C51.0166 21.4668 49.8966 20.9068 48.8466 21.0468C46.1399 21.4668 43.7133 20.6035 42.9433 18.7601C42.1733 16.8935 43.2699 14.5835 45.5099 12.9501C46.3499 12.3201 46.7233 11.1301 46.0699 10.2901C44.6977 8.50263 43.0975 6.90238 41.31 5.53015C40.47 4.87681 39.2799 5.25015 38.6499 6.09015C37.0166 8.33015 34.6833 9.42681 32.84 8.65681C30.9733 7.88681 30.1333 5.46015 30.5533 2.75348C30.7166 1.70348 30.1333 0.58348 29.0599 0.44348C26.8295 0.151652 24.5704 0.151652 22.34 0.44348V0.466813ZM35.0333 25.9001C35.0333 28.3755 34.05 30.7495 32.2996 32.4998C30.5493 34.2501 28.1753 35.2335 25.6999 35.2335C23.2246 35.2335 20.8506 34.2501 19.1003 32.4998C17.3499 30.7495 16.3666 28.3755 16.3666 25.9001C16.3666 23.4248 17.3499 21.0508 19.1003 19.3005C20.8506 17.5501 23.2246 16.5668 25.6999 16.5668C28.1753 16.5668 30.5493 17.5501 32.2996 19.3005C34.05 21.0508 35.0333 23.4248 35.0333 25.9001Z" fill="white"/>
</svg>
